<svg xmlns="http://www.w3.org/2000/svg"  viewBox="0 0 50 50" width="27px" height="27px"><path d="M 14 4 C 8.4886661 4 4 8.4886661 4 14 L 4 36 C 4 41.511334 8.4886661 46 14 46 L 36 46 C 41.511334 46 46 41.511334 46 36 L 46 14 C 46 8.4886661 41.511334 4 36 4 L 14 4 z M 14 6 L 36 6 C 40.430666 6 44 9.5693339 44 14 L 44 36 C 44 40.430666 40.430666 44 36 44 L 14 44 C 9.5693339 44 6 40.430666 6 36 L 6 14 C 6 9.5693339 9.5693339 6 14 6 z M 29.525391 10.998047 L 29.525391 17.007812 L 31.888672 17.007812 C 33.686672 17.007812 34.705078 15.913891 34.705078 13.962891 C 34.705078 12.081891 33.673672 10.998047 31.888672 10.998047 L 29.525391 10.998047 z M 15.269531 11.003906 L 16.859375 17.007812 L 18.046875 17.007812 L 19.169922 13.033203 L 19.234375 13.033203 L 20.369141 17.007812 L 21.548828 17.007812 L 23.142578 11.003906 L 21.84375 11.003906 L 20.916016 15.236328 L 20.849609 15.236328 L 19.734375 11.003906 L 18.673828 11.003906 L 17.578125 15.236328 L 17.513672 15.236328 L 16.576172 11.003906 L 15.269531 11.003906 z M 24.228516 11.003906 L 24.228516 17.007812 L 28.205078 17.007812 L 28.205078 15.935547 L 25.484375 15.935547 L 25.484375 14.474609 L 28.052734 14.474609 L 28.052734 13.478516 L 25.484375 13.478516 L 25.484375 12.076172 L 28.205078 12.076172 L 28.205078 11.003906 L 24.228516 11.003906 z M 30.78125 12.074219 L 31.6875 12.074219 C 32.7775 12.074219 33.423828 12.767422 33.423828 13.982422 C 33.423828 15.252422 32.7985 15.935547 31.6875 15.935547 L 30.78125 15.935547 L 30.78125 12.074219 z M 16.882812 20.035156 C 13.624813 20.035156 11.265625 22.273766 11.265625 25.384766 L 11.265625 25.396484 L 13.380859 25.396484 L 13.380859 25.384766 C 13.380859 23.317766 14.767266 21.943359 16.822266 21.943359 C 18.755266 21.943359 20.251953 23.293922 20.251953 25.044922 C 20.251953 26.455922 19.705359 27.402375 17.443359 29.859375 L 11.375 36.488281 L 11.375 37.996094 L 22.732422 37.996094 L 22.732422 36.025391 L 14.511719 36.025391 L 14.511719 35.832031 L 18.732422 31.296875 C 21.614422 28.207875 22.441406 26.784938 22.441406 24.960938 C 22.441406 22.176938 20.032812 20.035156 16.882812 20.035156 z M 32.410156 20.035156 C 29.127156 20.035156 26.804688 21.980797 26.804688 24.716797 C 26.804688 26.626797 27.946375 28.146812 29.734375 28.632812 L 29.734375 28.828125 C 27.533375 29.241125 26.087891 31.016734 26.087891 33.302734 C 26.087891 36.306734 28.688203 38.410156 32.408203 38.410156 C 36.129203 38.410156 38.732422 36.306734 38.732422 33.302734 C 38.732422 31.016734 37.286938 29.242125 35.085938 28.828125 L 35.085938 28.632812 C 36.897938 28.133813 38.015625 26.638797 38.015625 24.716797 C 38.015625 21.980797 35.693156 20.035156 32.410156 20.035156 z M 32.410156 21.908203 C 34.490156 21.908203 35.865234 23.111828 35.865234 24.923828 C 35.865234 26.711828 34.477156 27.902344 32.410156 27.902344 C 30.343156 27.902344 28.957031 26.711828 28.957031 24.923828 C 28.957031 23.111828 30.330156 21.908203 32.410156 21.908203 z M 32.410156 29.751953 C 34.842156 29.751953 36.521484 31.138531 36.521484 33.144531 C 36.521484 35.151531 34.842156 36.537109 32.410156 36.537109 C 29.977156 36.537109 28.300781 35.151531 28.300781 33.144531 C 28.300781 31.137531 29.977156 29.751953 32.410156 29.751953 z"/></svg>